<?xml version="1.0" standalone="no"?>
<!DOCTYPE svg PUBLIC "-//W3C//DTD SVG 20010904//EN"
 "http://www.w3.org/TR/2001/REC-SVG-20010904/DTD/svg10.dtd">
<svg version="1.0" xmlns="http://www.w3.org/2000/svg"
 width="500.000000pt" height="500.000000pt" viewBox="0 0 500.000000 500.000000"
 preserveAspectRatio="xMidYMid meet">

<g transform="translate(0.000000,500.000000) scale(0.100000,-0.100000)"
fill="#000000" stroke="none">
<path d="M0 2500 l0 -2500 2500 0 2500 0 0 2500 0 2500 -2500 0 -2500 0 0
-2500z m3840 20 c0 -73 -2 -80 -20 -80 -18 0 -20 7 -20 80 0 73 2 80 20 80 18
0 20 -7 20 -80z m680 1 l0 -79 -50 0 c-40 0 -54 5 -65 21 l-15 21 0 -22 c0
-15 -6 -22 -20 -22 -17 0 -20 7 -20 45 0 33 -4 45 -15 45 -11 0 -15 -12 -15
-45 l0 -45 -77 1 c-97 2 -123 18 -87 53 8 9 26 16 40 16 13 0 24 5 24 10 0 7
-13 8 -35 4 -19 -3 -35 -2 -35 3 0 17 24 33 51 33 47 0 59 -10 59 -45 0 -19 5
-37 10 -40 6 -4 10 11 10 38 l0 44 45 1 c34 0 49 -4 57 -18 12 -18 13 -18 26
2 10 13 22 18 38 15 20 -3 24 0 24 19 0 19 5 24 25 24 25 0 25 -1 25 -79z
m230 50 c0 -28 1 -29 28 -19 16 6 40 8 55 5 26 -7 31 -16 41 -78 l6 -35 -90
-1 c-74 -1 -90 1 -90 14 0 12 -3 12 -17 -2 -9 -10 -26 -15 -40 -12 -19 3 -23
0 -23 -19 0 -17 -6 -24 -20 -24 -18 0 -20 7 -20 78 l0 79 45 1 c28 0 51 -6 60
-15 13 -13 15 -10 15 21 0 32 3 36 25 36 21 0 25 -5 25 -29z m-650 5 c0 -8 -5
-18 -11 -21 -6 -4 -8 -14 -5 -22 9 -23 -12 -43 -45 -43 -45 0 -34 -18 13 -22
32 -2 44 -8 46 -21 6 -31 -17 -47 -68 -47 -47 0 -83 21 -60 35 5 3 10 12 10
18 0 9 -2 9 -8 1 -9 -14 -93 -15 -109 -2 -7 6 -13 32 -13 59 0 42 3 49 19 49
16 0 20 -8 23 -42 4 -59 28 -63 28 -4 0 42 2 46 25 46 14 0 25 -5 25 -10 0 -7
6 -7 19 0 11 5 31 10 44 10 14 0 27 7 31 15 7 19 36 20 36 1z m-502 -28 c7 -7
12 -26 12 -44 0 -18 5 -34 12 -36 6 -2 8 -9 5 -15 -4 -7 -31 -11 -63 -10 -43
2 -60 6 -68 20 -9 15 -7 21 8 33 11 8 30 14 44 14 13 0 21 4 17 9 -3 5 -21 7
-40 4 -39 -6 -43 -2 -19 21 18 19 75 21 92 4z m180 -1 c17 -13 15 -82 -3 -97
-8 -7 -24 -10 -35 -7 -16 4 -20 0 -20 -19 0 -19 -5 -24 -25 -24 -25 0 -25 1
-25 79 l0 79 48 0 c26 0 53 -5 60 -11z m1143 -24 l13 -38 9 38 c6 26 14 37 28
37 25 0 24 -7 -7 -85 -20 -49 -32 -67 -50 -71 -24 -6 -44 1 -44 17 0 5 6 9 14
9 25 0 27 17 6 65 -25 58 -25 65 -1 65 14 0 23 -12 32 -37z m-1311 -185 c0
-59 1 -60 18 -45 10 10 28 17 40 17 12 0 22 5 22 10 0 7 -13 8 -36 4 -29 -5
-36 -4 -32 7 7 23 55 35 87 22 26 -9 30 -8 42 13 14 27 39 32 39 9 0 -16 14
-19 73 -15 48 2 67 -13 67 -55 0 -19 5 -35 12 -37 6 -2 9 -9 5 -15 -8 -13
-307 -14 -324 0 -9 6 -13 6 -13 -1 0 -5 -21 -9 -47 -8 -40 1 -49 5 -63 29 -13
24 -13 30 1 55 11 19 23 27 42 27 22 -1 27 4 27 22 0 16 6 23 20 23 18 0 20
-7 20 -62z m488 5 c16 -17 18 -17 35 0 23 23 66 21 94 -5 23 -21 23 -21 23 -1
0 18 6 20 88 19 l87 -1 3 -57 c3 -53 1 -58 -18 -58 -17 0 -20 6 -20 46 0 59
-24 55 -28 -4 -3 -33 -7 -42 -22 -42 -15 0 -19 9 -22 42 -4 59 -28 63 -28 4 0
-39 -3 -46 -20 -46 -14 0 -20 7 -20 22 l0 21 -23 -21 c-28 -26 -71 -28 -94 -4
-17 16 -19 16 -35 0 -38 -38 -108 -11 -108 40 0 55 69 83 108 45z m453 1 c9
-11 13 -11 26 1 18 18 77 20 91 2 6 -6 12 -28 15 -47 3 -31 4 -29 5 12 l2 46
48 0 c26 0 53 -5 60 -11 8 -6 12 -6 12 2 0 6 9 11 19 11 14 0 23 -12 32 -37
l13 -38 9 38 c6 26 14 37 28 37 25 0 24 -7 -7 -85 -20 -49 -32 -67 -50 -71
-24 -6 -44 1 -44 17 0 5 6 9 14 9 25 0 27 16 7 62 l-20 43 0 -47 c-1 -41 -4
-48 -20 -48 -16 0 -20 8 -23 42 -4 59 -28 63 -28 4 l0 -46 -77 1 c-43 1 -84 6
-90 12 -9 6 -18 5 -28 -3 -8 -7 -24 -10 -35 -7 -16 4 -20 0 -20 -19 0 -19 -5
-24 -25 -24 -25 0 -25 1 -25 79 l0 79 50 0 c29 0 54 -6 61 -14z m-2001 -204
c93 -15 184 -62 218 -113 27 -40 27 -44 30 -226 2 -109 8 -191 14 -198 6 -7
26 -13 44 -13 l34 0 0 -84 0 -84 -50 -11 c-110 -24 -212 -7 -263 43 l-32 31
-79 -40 c-77 -40 -79 -40 -190 -40 -94 0 -117 3 -151 22 -79 42 -105 88 -105
186 1 110 47 176 152 215 58 22 199 42 291 42 56 0 57 0 57 28 0 16 -9 37 -20
47 -39 35 -169 28 -184 -10 -4 -12 -31 -15 -139 -15 l-134 0 -94 -255 -94
-255 -135 0 -135 0 -54 193 c-29 105 -56 196 -59 201 -3 5 -31 -80 -62 -190
l-57 -199 -135 -3 c-103 -2 -137 1 -140 10 -52 137 -258 706 -258 712 0 3 66
5 147 4 l147 -3 52 -208 c28 -115 55 -211 58 -214 8 -8 10 -2 69 222 l53 200
139 0 139 0 37 -150 c58 -232 71 -275 79 -270 4 2 31 99 60 215 l54 210 134 0
c103 0 133 -3 129 -12 -2 -7 -7 -23 -11 -35 l-7 -23 48 25 c94 49 259 67 403
45z"/>
<path d="M4440 2500 c0 -20 5 -30 15 -30 10 0 15 10 15 30 0 20 -5 30 -15 30
-10 0 -15 -10 -15 -30z"/>
<path d="M4190 2480 c0 -5 7 -10 15 -10 8 0 15 5 15 10 0 6 -7 10 -15 10 -8 0
-15 -4 -15 -10z"/>
<path d="M4624 2516 c-8 -22 3 -49 19 -43 6 2 12 14 12 27 0 27 -22 39 -31 16z"/>
<path d="M4773 2523 c-13 -2 -23 -12 -23 -21 0 -12 3 -13 12 -4 7 7 22 12 35
12 13 0 23 5 23 10 0 10 -8 11 -47 3z"/>
<path d="M4790 2480 c0 -5 7 -10 15 -10 8 0 15 5 15 10 0 6 -7 10 -15 10 -8 0
-15 -4 -15 -10z"/>
<path d="M3970 2504 c0 -8 5 -12 10 -9 6 4 8 11 5 16 -9 14 -15 11 -15 -7z"/>
<path d="M4023 2433 c9 -2 23 -2 30 0 6 3 -1 5 -18 5 -16 0 -22 -2 -12 -5z"/>
<path d="M3540 2480 c0 -5 4 -10 9 -10 6 0 13 5 16 10 3 6 -1 10 -9 10 -9 0
-16 -4 -16 -10z"/>
<path d="M3720 2500 c0 -20 5 -30 15 -30 10 0 15 10 15 30 0 20 -5 30 -15 30
-10 0 -15 -10 -15 -30z"/>
<path d="M3540 2300 c0 -21 4 -30 13 -27 6 2 12 14 12 27 0 13 -6 25 -12 28
-9 2 -13 -7 -13 -28z"/>
<path d="M3742 2300 c0 -19 2 -27 5 -17 2 9 2 25 0 35 -3 9 -5 1 -5 -18z"/>
<path d="M3790 2304 c0 -31 9 -35 31 -13 10 10 31 19 46 19 45 0 15 14 -32 15
-39 0 -45 -2 -45 -21z"/>
<path d="M3660 2280 c0 -5 7 -10 15 -10 8 0 15 5 15 10 0 6 -7 10 -15 10 -8 0
-15 -4 -15 -10z"/>
<path d="M3860 2280 c0 -5 4 -10 9 -10 6 0 13 5 16 10 3 6 -1 10 -9 10 -9 0
-16 -4 -16 -10z"/>
<path d="M4034 2315 c-13 -32 24 -63 41 -35 3 6 15 10 26 10 10 0 19 5 19 10
0 6 -11 10 -25 10 -14 0 -25 5 -25 10 0 16 -30 12 -36 -5z"/>
<path d="M4164 2316 c-8 -22 3 -49 19 -43 6 2 12 14 12 27 0 27 -22 39 -31 16z"/>
<path d="M4490 2300 c0 -20 5 -30 15 -30 10 0 15 10 15 30 0 20 -5 30 -15 30
-10 0 -15 -10 -15 -30z"/>
<path d="M4588 2323 c-16 -3 -28 -11 -28 -19 0 -11 4 -12 19 -4 11 5 29 10 41
10 12 0 18 5 15 10 -3 6 -9 9 -13 9 -4 -1 -19 -4 -34 -6z"/>
<path d="M4610 2280 c0 -5 4 -10 9 -10 6 0 13 5 16 10 3 6 -1 10 -9 10 -9 0
-16 -4 -16 -10z"/>
<path d="M2385 1725 c-53 -14 -95 -52 -95 -86 0 -11 11 -31 25 -44 29 -30 89
-34 141 -9 48 23 64 50 64 106 l0 48 -42 -1 c-24 0 -65 -6 -93 -14z"/>
</g>
</svg>
